<svg width="10" height="20" viewBox="0 0 10 20" fill="none" xmlns="http://www.w3.org/2000/svg">
<path id="Subtract" fill-rule="evenodd" clip-rule="evenodd" d="M8.46623 17.931H9.31382C9.66244 17.931 9.94589 18.2145 9.94589 18.5631V19.3679C9.94589 19.7166 9.66244 20 9.31382 20H0.92278C0.574159 20 0.29071 19.7166 0.29071 19.3679V18.5631C0.29071 18.2145 0.574159 17.931 0.92278 17.931H1.77002L2.23244 16.6059C2.34692 16.2034 2.81554 15.9293 3.23968 15.8738L3.79623 15.3172C3.88899 15.2245 3.90795 15.0803 3.84278 14.9669C3.29485 14.0103 3.48313 12.7141 3.6445 12.0266C3.66726 11.9283 3.64106 11.8241 3.57692 11.7617C2.60726 10.8179 3.04416 9.27828 3.06313 9.21345L3.07899 9.17035C3.13347 9.04759 3.17037 8.90897 3.18864 8.75724C3.25692 8.19345 2.92278 7.71138 2.71761 7.47414C1.92485 6.55793 2.09312 5.00241 2.26416 4.15621C2.34313 3.76586 2.63106 3.45552 3.01588 3.34552L4.20451 3.00586C3.92106 2.69 3.73899 2.23517 3.73899 1.72414C3.73899 0.773448 4.35761 0 5.1183 0C5.87899 0 6.49761 0.773448 6.49761 1.72414C6.49761 2.23517 6.31554 2.69 6.03209 3.00586L7.22106 3.34552C7.60554 3.45552 7.89347 3.76586 7.97244 4.15621C8.14347 5.00241 8.31175 6.55793 7.51899 7.47414C7.31382 7.71138 6.97968 8.19345 7.04795 8.75724C7.06623 8.90897 7.10313 9.04759 7.15761 9.17035L7.17313 9.21345C7.19244 9.27828 7.62933 10.8179 6.65968 11.7617C6.59554 11.8241 6.56899 11.9283 6.59209 12.0266C6.75347 12.7141 6.94175 14.0103 6.39382 14.9669C6.32864 15.0803 6.34761 15.2245 6.44037 15.3172L6.99692 15.8738C7.42106 15.9297 7.89037 16.2055 8.01002 16.6248L8.46623 17.931ZM3.39416 16.5517C3.18106 16.5517 2.92071 16.7041 2.88968 16.8141L2.50037 17.931H7.73623L7.35278 16.8328C7.31589 16.7041 7.05554 16.5517 6.84244 16.5517H3.39416Z" fill="#0C1932" fill-opacity="0.6"/>
</svg>
