<svg width="44" height="48" viewBox="0 0 44 48" fill="none" xmlns="http://www.w3.org/2000/svg">
<path d="M38 0V5.33333H32.6667V0H11.3334V5.33333H6.00002V0H0.666687V48H6.00002V42.6667H11.3334V48H32.6667V42.6667H38V48H43.3334V0H38ZM11.3334 37.3333H6.00002V32H11.3334V37.3333ZM11.3334 26.6667H6.00002V21.3333H11.3334V26.6667ZM11.3334 16H6.00002V10.6667H11.3334V16ZM38 37.3333H32.6667V32H38V37.3333ZM38 26.6667H32.6667V21.3333H38V26.6667ZM38 16H32.6667V10.6667H38V16Z" fill="#0C1932" fill-opacity="0.1"/>
</svg>
